<svg xmlns="http://www.w3.org/2000/svg" xmlns:xlink="http://www.w3.org/1999/xlink" width="500" zoomAndPan="magnify" viewBox="0 0 375 374.999991" height="500" preserveAspectRatio="xMidYMid meet" version="1.0"><defs><clipPath id="bc4b3138c4"><path d="M 37.5 25.8125 L 349.1875 25.8125 L 349.1875 337.5 L 37.5 337.5 Z M 37.5 25.8125 " clip-rule="nonzero"/></clipPath><clipPath id="2d05450784"><path d="M 193.34375 25.8125 C 107.273438 25.8125 37.5 95.585938 37.5 181.65625 C 37.5 267.726562 107.273438 337.5 193.34375 337.5 C 279.414062 337.5 349.1875 267.726562 349.1875 181.65625 C 349.1875 95.585938 279.414062 25.8125 193.34375 25.8125 Z M 193.34375 25.8125 " clip-rule="nonzero"/></clipPath></defs><rect x="-37.5" width="450" fill="#ffffff" y="-37.499999" height="449.999989" fill-opacity="1"/><rect x="-37.5" width="450" fill="#ffffff" y="-37.499999" height="449.999989" fill-opacity="1"/><g clip-path="url(#bc4b3138c4)"><g clip-path="url(#2d05450784)"><path fill="#ffffff" d="M 37.5 25.8125 L 349.1875 25.8125 L 349.1875 337.5 L 37.5 337.5 Z M 37.5 25.8125 " fill-opacity="1" fill-rule="nonzero"/></g></g><path fill="#154373" d="M 68.34375 227.71875 C 67.367188 226.742188 66.882812 225.582031 66.882812 224.230469 L 66.882812 152.492188 C 66.882812 147.226562 70.050781 144.582031 76.40625 144.582031 L 76.40625 220.761719 L 107.511719 220.761719 C 109.875 220.761719 111.695312 221.492188 112.988281 222.9375 C 114.261719 224.398438 114.917969 226.460938 114.917969 229.164062 L 71.851562 229.164062 C 70.5 229.179688 69.335938 228.695312 68.34375 227.71875 Z M 68.34375 227.71875 " fill-opacity="1" fill-rule="nonzero"/><path fill="#154373" d="M 128.925781 162.710938 C 128.925781 161.4375 129.394531 160.367188 130.351562 159.523438 C 131.289062 158.679688 132.449219 158.25 133.800781 158.25 L 178.6875 158.25 C 178.6875 161.082031 178.105469 163.179688 176.960938 164.53125 C 175.820312 165.882812 174.019531 166.554688 171.601562 166.554688 L 138.449219 166.554688 L 138.449219 189.261719 L 166.820312 189.261719 C 166.820312 192.09375 166.238281 194.195312 165.09375 195.542969 C 163.949219 196.894531 162.1875 197.570312 159.824219 197.570312 L 138.449219 197.570312 L 138.449219 220.875 L 173.71875 220.875 C 176.082031 220.875 177.84375 221.550781 178.988281 222.898438 C 180.132812 224.25 180.710938 226.351562 180.710938 229.179688 L 133.800781 229.179688 C 132.449219 229.179688 131.304688 228.769531 130.351562 227.90625 C 129.394531 227.0625 128.925781 225.992188 128.925781 224.71875 Z M 128.925781 162.710938 " fill-opacity="1" fill-rule="nonzero"/><path fill="#154373" d="M 271.742188 162.710938 C 271.742188 161.4375 272.195312 160.367188 273.113281 159.523438 C 274.03125 158.679688 275.195312 158.25 276.601562 158.25 L 306.1875 158.25 C 310.648438 158.25 314.605469 159.1875 318.039062 161.042969 C 321.488281 162.898438 324.148438 165.507812 326.042969 168.84375 C 327.9375 172.179688 328.875 176.023438 328.875 180.335938 C 328.875 184.800781 327.9375 188.71875 326.082031 192.09375 C 324.226562 195.46875 321.582031 198.074219 318.132812 199.894531 C 314.679688 201.710938 310.707031 202.632812 306.167969 202.632812 L 281.230469 202.632812 L 281.230469 222.1875 C 281.230469 224.757812 280.425781 226.707031 278.792969 228.054688 C 277.179688 229.40625 274.800781 230.082031 271.707031 230.082031 L 271.707031 162.710938 Z M 306.207031 194.230469 C 310.257812 194.230469 313.460938 192.992188 315.824219 190.539062 C 318.1875 188.082031 319.367188 184.667969 319.367188 180.355469 C 319.367188 176.175781 318.167969 172.835938 315.769531 170.382812 C 313.367188 167.925781 310.179688 166.6875 306.1875 166.6875 L 281.25 166.6875 L 281.25 194.25 L 306.207031 194.25 Z M 306.207031 194.230469 " fill-opacity="1" fill-rule="nonzero"/><path fill="#154373" d="M 81.449219 149.585938 C 81.449219 150.199219 81.390625 150.808594 81.269531 151.410156 C 81.152344 152.011719 80.972656 152.59375 80.738281 153.160156 C 80.503906 153.726562 80.21875 154.265625 79.875 154.773438 C 79.535156 155.285156 79.148438 155.757812 78.714844 156.191406 C 78.28125 156.625 77.808594 157.011719 77.300781 157.351562 C 76.789062 157.691406 76.253906 157.980469 75.6875 158.214844 C 75.121094 158.449219 74.535156 158.625 73.933594 158.746094 C 73.332031 158.863281 72.726562 158.925781 72.113281 158.925781 C 71.5 158.925781 70.890625 158.863281 70.289062 158.746094 C 69.691406 158.625 69.105469 158.449219 68.539062 158.214844 C 67.972656 157.980469 67.433594 157.691406 66.925781 157.351562 C 66.414062 157.011719 65.945312 156.625 65.511719 156.191406 C 65.078125 155.757812 64.6875 155.285156 64.347656 154.773438 C 64.007812 154.265625 63.71875 153.726562 63.484375 153.160156 C 63.25 152.59375 63.074219 152.011719 62.953125 151.410156 C 62.835938 150.808594 62.773438 150.199219 62.773438 149.585938 C 62.773438 148.972656 62.835938 148.367188 62.953125 147.765625 C 63.074219 147.164062 63.25 146.582031 63.484375 146.015625 C 63.71875 145.449219 64.007812 144.910156 64.347656 144.398438 C 64.6875 143.890625 65.078125 143.417969 65.511719 142.984375 C 65.945312 142.550781 66.414062 142.164062 66.925781 141.824219 C 67.433594 141.484375 67.972656 141.195312 68.539062 140.960938 C 69.105469 140.726562 69.691406 140.550781 70.289062 140.429688 C 70.890625 140.308594 71.5 140.25 72.113281 140.25 C 72.726562 140.25 73.332031 140.308594 73.933594 140.429688 C 74.535156 140.550781 75.121094 140.726562 75.6875 140.960938 C 76.253906 141.195312 76.789062 141.484375 77.300781 141.824219 C 77.808594 142.164062 78.28125 142.550781 78.714844 142.984375 C 79.148438 143.417969 79.535156 143.890625 79.875 144.398438 C 80.21875 144.910156 80.503906 145.449219 80.738281 146.015625 C 80.972656 146.582031 81.152344 147.164062 81.269531 147.765625 C 81.390625 148.367188 81.449219 148.972656 81.449219 149.585938 Z M 81.449219 149.585938 " fill-opacity="1" fill-rule="nonzero"/><path fill="#154373" d="M 115.820312 225.414062 C 115.820312 226.027344 115.757812 226.632812 115.640625 227.234375 C 115.519531 227.835938 115.34375 228.417969 115.109375 228.984375 C 114.875 229.550781 114.585938 230.089844 114.246094 230.601562 C 113.90625 231.109375 113.515625 231.582031 113.082031 232.015625 C 112.648438 232.449219 112.179688 232.835938 111.667969 233.175781 C 111.160156 233.515625 110.621094 233.804688 110.054688 234.039062 C 109.488281 234.273438 108.902344 234.449219 108.304688 234.570312 C 107.703125 234.691406 107.09375 234.75 106.480469 234.75 C 105.867188 234.75 105.261719 234.691406 104.660156 234.570312 C 104.058594 234.449219 103.472656 234.273438 102.90625 234.039062 C 102.339844 233.804688 101.804688 233.515625 101.292969 233.175781 C 100.785156 232.835938 100.3125 232.449219 99.878906 232.015625 C 99.445312 231.582031 99.058594 231.109375 98.71875 230.601562 C 98.375 230.089844 98.089844 229.550781 97.855469 228.984375 C 97.621094 228.417969 97.441406 227.835938 97.324219 227.234375 C 97.203125 226.632812 97.144531 226.027344 97.144531 225.414062 C 97.144531 224.800781 97.203125 224.191406 97.324219 223.589844 C 97.441406 222.988281 97.621094 222.40625 97.855469 221.839844 C 98.089844 221.273438 98.375 220.734375 98.71875 220.226562 C 99.058594 219.714844 99.445312 219.242188 99.878906 218.808594 C 100.3125 218.375 100.785156 217.988281 101.292969 217.648438 C 101.804688 217.308594 102.339844 217.019531 102.90625 216.785156 C 103.472656 216.550781 104.058594 216.375 104.660156 216.253906 C 105.261719 216.136719 105.867188 216.074219 106.480469 216.074219 C 107.09375 216.074219 107.703125 216.136719 108.304688 216.253906 C 108.902344 216.375 109.488281 216.550781 110.054688 216.785156 C 110.621094 217.019531 111.160156 217.308594 111.667969 217.648438 C 112.179688 217.988281 112.648438 218.375 113.082031 218.808594 C 113.515625 219.242188 113.90625 219.714844 114.246094 220.226562 C 114.585938 220.734375 114.875 221.273438 115.109375 221.839844 C 115.34375 222.40625 115.519531 222.988281 115.640625 223.589844 C 115.757812 224.191406 115.820312 224.800781 115.820312 225.414062 Z M 115.820312 225.414062 " fill-opacity="1" fill-rule="nonzero"/><path fill="#37b3e3" d="M 223.21875 160.21875 C 224.023438 158.195312 225.582031 157.179688 227.886719 157.179688 C 230.042969 157.179688 231.5625 158.195312 232.445312 160.21875 L 256.667969 218.492188 C 257.269531 219.917969 257.585938 221.269531 257.585938 222.542969 C 257.585938 224.363281 256.894531 226.085938 255.75 227.4375 C 254.605469 228.789062 252.992188 229.742188 250.96875 230.136719 L 242.210938 208.78125 " fill-opacity="1" fill-rule="nonzero"/><path fill="#154373" d="M 226.367188 201.507812 C 226.367188 201.242188 226.40625 201 226.460938 200.757812 L 213.054688 200.699219 L 225.917969 174.167969 C 223.667969 168.917969 225.917969 174.167969 223.667969 168.917969 C 222.976562 167.289062 223.855469 169.480469 222.167969 165.167969 C 222.074219 164.925781 221.605469 163.667969 221.417969 163.292969 L 195.824219 218.625 C 195.226562 220.050781 194.90625 221.398438 194.90625 222.675781 C 194.90625 224.570312 195.488281 226.164062 196.632812 227.492188 C 197.773438 228.804688 199.367188 229.667969 201.394531 230.082031 L 210.113281 208.894531 L 226.855469 208.894531 C 226.742188 206.4375 226.386719 203.980469 226.367188 201.507812 Z M 226.367188 201.507812 " fill-opacity="1" fill-rule="nonzero"/><path fill="#154373" d="M 236.417969 200.605469 L 210.789062 200.457031 C 211.257812 202.03125 210.824219 203.960938 211.480469 205.480469 C 211.667969 205.761719 202.742188 206.230469 202.929688 206.511719 C 203.511719 207 213.300781 207.226562 213.898438 207.695312 C 214.574219 208.21875 207.710938 208.386719 208.273438 209.042969 L 239.960938 209.230469 C 239.773438 208.667969 239.960938 209.230469 239.773438 208.667969 " fill-opacity="1" fill-rule="nonzero"/></svg>