<?xml version="1.0" encoding="utf-8"?>
<!-- Generator: Adobe Illustrator 24.0.1, SVG Export Plug-In . SVG Version: 6.00 Build 0)  -->
<svg version="1.1" id="Layer_1" xmlns="http://www.w3.org/2000/svg" xmlns:xlink="http://www.w3.org/1999/xlink" x="0px" y="0px"
	 viewBox="0 0 1620.8 708.9" style="enable-background:new 0 0 1620.8 708.9;" xml:space="preserve">
<style type="text/css">
	.st0{fill:#154373;}
	.st1{fill:#37B3E3;}
</style>
<g>
	<g>
		<path class="st0" d="M129.8,572.3c-5.2-5.2-7.8-11.4-7.8-18.6V171.1c0-28.1,16.9-42.2,50.8-42.2v406.3h165.9
			c12.6,0,22.3,3.9,29.2,11.6c6.8,7.8,10.3,18.8,10.3,33.2H148.5C141.3,580.1,135.1,577.5,129.8,572.3z"/>
		<path class="st0" d="M452.9,225.6c0-6.8,2.5-12.5,7.6-17c5-4.5,11.2-6.8,18.4-6.8h239.4c0,15.1-3.1,26.3-9.2,33.5
			c-6.1,7.2-15.7,10.8-28.6,10.8H503.7v121.1H655c0,15.1-3.1,26.3-9.2,33.5c-6.1,7.2-15.5,10.8-28.1,10.8h-114v124.3h188.1
			c12.6,0,22,3.6,28.1,10.8c6.1,7.2,9.2,18.4,9.2,33.5H478.9c-7.2,0-13.3-2.2-18.4-6.8c-5.1-4.5-7.6-10.2-7.6-17V225.6z"/>
		<path class="st0" d="M1214.6,225.6c0-6.8,2.4-12.5,7.3-17s11.1-6.8,18.6-6.8h157.8c23.8,0,44.9,5,63.2,14.9
			c18.4,9.9,32.6,23.8,42.7,41.6s15.1,38.3,15.1,61.3c0,23.8-5,44.7-14.9,62.7s-24,31.9-42.4,41.6s-39.6,14.6-63.8,14.6h-133v104.3
			c0,13.7-4.3,24.1-13,31.3c-8.6,7.2-21.3,10.8-37.8,10.8V225.6H1214.6z M1398.4,393.7c21.6,0,38.7-6.6,51.3-19.7
			c12.6-13.1,18.9-31.3,18.9-54.3c0-22.3-6.4-40.1-19.2-53.2c-12.8-13.1-29.8-19.7-51.1-19.7h-133v147L1398.4,393.7L1398.4,393.7z"
			/>
	</g>
	<circle class="st0" cx="149.9" cy="155.6" r="49.8"/>
	<circle class="st0" cx="333.2" cy="560" r="49.8"/>
	<g>
		<g>
			<path class="st1" d="M955.8,212.3c4.3-10.8,12.6-16.2,24.9-16.2c11.5,0,19.6,5.4,24.3,16.2l129.2,310.8
				c3.2,7.6,4.9,14.8,4.9,21.6c0,9.7-3.7,18.9-9.8,26.1c-6.1,7.2-14.7,12.3-25.5,14.4l-46.7-113.9"/>
		</g>
	</g>
	<g>
		<path class="st0" d="M972.6,432.5c0-1.4,0.2-2.7,0.5-4l-71.5-0.3l68.6-141.5c-12-28,0,0-12-28c-3.7-8.7,1,3-8-20
			c-0.5-1.3-3-8-4-10L809.7,523.8c-3.2,7.6-4.9,14.8-4.9,21.6c0,10.1,3.1,18.6,9.2,25.7c6.1,7,14.6,11.6,25.4,13.8l46.5-113h89.3
			C974.6,458.8,972.7,445.7,972.6,432.5z"/>
		<path class="st0" d="M1026.2,427.7l-136.7-0.8c2.5,8.4,0.2,18.7,3.7,26.8c1,1.5-46.6,4-45.6,5.5c3.1,2.6,55.3,3.8,58.5,6.3
			c3.6,2.8-33,3.7-30,7.2l169,1c-1-3,0,0-1-3"/>
	</g>
</g>
</svg>
